PathFileType	4	(X/Y/Z)	./resultDataOpenSim/trcMotMarkerGrf/sub06/qtm-14-02.trc
DataRate	CameraRate	NumFrames	NumMarkers	Units	OrigDataRate	OrigDataStartFrame	OrigNumFrames
250.000000	250.000000	7	24	m	250.000000	71	565
Frame#	Time	L.Toe.Tip			R.Toe.Tip			L.Ankle.Lat			R.Ankle.Lat			L.Ankle.Med			R.Ankle.Med			L.Heel			R.Heel			L.Knee.Lat			R.Knee.Lat			L.Knee.Med			R.Knee.Med			L.Thigh.Upper			R.Thigh.Upper			L.ASIS			R.ASIS			V.Sacral			L.Acromium			R.Acromium			C7			L.Elbow			R.Elbow			L.Wrist.Lat			R.Wrist.Lat
		X1	Y1	Z1	X2	Y2	Z2	X3	Y3	Z3	X4	Y4	Z4	X5	Y5	Z5	X6	Y6	Z6	X7	Y7	Z7	X8	Y8	Z8	X9	Y9	Z9	X10	Y10	Z10	X11	Y11	Z11	X12	Y12	Z12	X13	Y13	Z13	X14	Y14	Z14	X15	Y15	Z15	X16	Y16	Z16	X17	Y17	Z17	X18	Y18	Z18	X19	Y19	Z19	X20	Y20	Z20	X21	Y21	Z21	X22	Y22	Z22	X23	Y23	Z23	X24	Y24	Z24

71	0.28	-1.3725756	0.075545263	-0.076913039	-0.75120166	0.035955451	0.091025201	-1.3653686	0.20784433	-0.10318877	-0.8869512	0.060580108	0.10836221	-1.3458472	0.2075032	-0.021298855	-0.86569664	0.079431966	0.022477669	-1.4075543	0.26427329	-0.051651008	-0.94087472	0.037345082	0.045640804	-1.0225748	0.37547647	-0.12669657	-0.83167771	0.44247781	0.14239478	-1.0244289	0.36838529	-0.0036038082	-0.86768363	0.43158019	0.018658031	-1.0186074	0.76856197	-0.13524827	-0.97373246	0.7913797	0.20511364	-0.93700271	0.82270576	-0.10009337	-0.89964925	0.84262844	0.13751961	-1.102432	0.90542207	0.049887135	-0.96656662	1.3210883	-0.14776438	-0.97206556	1.3007671	0.21700834	-1.0523374	1.3483051	0.032463755	-0.96088856	0.99960173	-0.2213766	-1.1009951	1.0159664	0.28617777	-0.76805899	0.84859699	-0.18360271	-1.0305203	0.78782127	0.32037374
72	0.284	-1.3578728	0.076896541	-0.077193554	-0.7513519	0.035961037	0.091211957	-1.3526866	0.20929632	-0.10251319	-0.88721521	0.060565374	0.10844813	-1.3313795	0.20930617	-0.021377198	-0.86570532	0.079522009	0.022635005	-1.3955943	0.26542695	-0.05149969	-0.9409415	0.037377226	0.045646997	-1.0102271	0.3767	-0.12691827	-0.82964196	0.44202821	0.142911	-1.0120465	0.36980632	-0.0036637826	-0.86561963	0.43163915	0.019341325	-1.0119131	0.76991803	-0.13472725	-0.96833371	0.79257645	0.20558593	-0.9305792	0.82423797	-0.099563024	-0.89385719	0.84375065	0.13830995	-1.0963088	0.90699893	0.049460627	-0.96100105	1.3224817	-0.14760734	-0.9659718	1.3022792	0.21727713	-1.0463249	1.3498129	0.032799684	-0.95629524	1.000917	-0.22066805	-1.0929924	1.0165904	0.28718192	-0.76484229	0.8482857	-0.18372397	-1.020728	0.78908442	0.32115037
73	0.288	-1.3430444	0.078029716	-0.077500948	-0.75152478	0.035972905	0.09140977	-1.3396172	0.2104992	-0.10193065	-0.88750304	0.060567114	0.1085414	-1.3176249	0.21066585	-0.021093164	-0.86576524	0.079603153	0.022797446	-1.3832867	0.26606509	-0.050802807	-0.94101448	0.03741352	0.045651852	-0.99795722	0.37804874	-0.12702849	-0.82782191	0.44167924	0.143421	-0.99968551	0.37132793	-0.0036590328	-0.86370801	0.43172537	0.019961223	-1.005244	0.77134854	-0.13419869	-0.96270871	0.79381528	0.2061493	-0.92410506	0.82583524	-0.098917839	-0.88814087	0.84493173	0.13914206	-1.0908616	0.90879353	0.048081072	-0.9554768	1.3239379	-0.14744295	-0.95993541	1.3038669	0.21754047	-1.0403569	1.3513326	0.03309729	-0.95173113	1.0022934	-0.21994297	-1.0849146	1.0172383	0.28809747	-0.76165876	0.84805717	-0.18384861	-1.0108613	0.7904704	0.32188962
74	0.292	-1.3281043	0.078983048	-0.077839943	-0.75171171	0.035989139	0.09160922	-1.3262531	0.21147385	-0.10142806	-0.88778251	0.060589157	0.10864004	-1.304367	0.21168317	-0.020569077	-0.86586162	0.079676249	0.022962551	-1.3706232	0.26621982	-0.049427364	-0.94108941	0.037454204	0.045655476	-0.98574817	0.37952494	-0.12704294	-0.82616359	0.44142819	0.14389934	-0.9871759	0.37294735	-0.0036180382	-0.86187639	0.43183473	0.020461108	-0.99858588	0.77286365	-0.13369348	-0.95686858	0.7950886	0.20680555	-0.91760939	0.82747885	-0.098207576	-0.88249714	0.84618006	0.14002146	-1.0859272	0.9106727	0.046572019	-0.94998227	1.3254526	-0.14726987	-0.95394191	1.3055206	0.21778598	-1.0344274	1.3528664	0.033357943	-0.94721617	1.0037276	-0.21919887	-1.0767779	1.0178721	0.28858265	-0.75854053	0.84790663	-0.18400078	-1.0008412	0.7919908	0.32258568
75	0.296	-1.313025	0.079778412	-0.078195083	-0.75190157	0.036008979	0.091799565	-1.3128243	0.21222488	-0.10090338	-0.88803155	0.060632425	0.10874773	-1.2911277	0.21246038	-0.019980015	-0.86597655	0.07974541	0.023125023	-1.3578777	0.26612878	-0.047925076	-0.94115969	0.03749919	0.04565927	-0.97354733	0.38113306	-0.12698968	-0.82463101	0.44124952	0.14434256	-0.97433907	0.37468828	-0.0035879486	-0.86008335	0.43197733	0.02082189	-0.99193675	0.7744684	-0.13327278	-0.95131635	0.79631808	0.20742653	-0.91117781	0.82914293	-0.097580527	-0.87691655	0.84749173	0.14095069	-1.0810956	0.91244683	0.04599239	-0.94450822	1.3270206	-0.14708739	-0.94798615	1.3072347	0.21800718	-1.0285357	1.3544095	0.03359011	-0.94276273	1.0052181	-0.21844046	-1.0687155	1.0185742	0.28888114	-0.75548075	0.84783574	-0.18417992	-0.99062915	0.79363699	0.32323916
76	0.3	-1.2977669	0.080412148	-0.078519583	-0.75208201	0.036032094	0.091973995	-1.2994261	0.21275466	-0.10030695	-0.88824528	0.060690711	0.10886721	-1.2776951	0.21303178	-0.019406968	-0.86609105	0.079817469	0.023278993	-1.3452095	0.26589936	-0.046757361	-0.94121928	0.037549655	0.04566562	-0.96131417	0.38288171	-0.12688503	-0.82319686	0.44112182	0.14475219	-0.9613235	0.3765856	-0.0035683449	-0.85835991	0.43216724	0.021083485	-0.98530788	0.77616124	-0.13302324	-0.94685141	0.79737146	0.20778527	-0.90487185	0.83082039	-0.097140572	-0.87139035	0.84885092	0.14192793	-1.0760728	0.91407933	0.046204068	-0.93904336	1.3286307	-0.14689906	-0.94205837	1.3090058	0.21820775	-1.0226825	1.3559507	0.033806675	-0.93837659	1.006768	-0.21767241	-1.0608246	1.0194781	0.28965251	-0.75245978	0.84784337	-0.18438252	-0.98025633	0.79539939	0.32384876
77	0.304	-1.2822872	0.080875685	-0.078770684	-0.75224181	0.036057942	0.092127387	-1.2859412	0.21307538	-0.099680948	-0.88842531	0.060755961	0.10899568	-1.2640944	0.21339413	-0.018853267	-0.8661845	0.079900191	0.023423488	-1.3325248	0.26546119	-0.045879863	-0.94126572	0.037609026	0.045675935	-0.94907873	0.38476272	-0.12672768	-0.82182029	0.4410357	0.14510685	-0.94854571	0.37863516	-0.0034558141	-0.85673356	0.43240781	0.021300819	-0.97870351	0.77793935	-0.13298542	-0.94359809	0.79821543	0.20781879	-0.89867606	0.83252732	-0.09686941	-0.86590742	0.85024031	0.14294124	-1.0708106	0.91568415	0.046127618	-0.93357468	1.3302704	-0.14671267	-0.93613501	1.3108218	0.21838607	-1.0168602	1.3574832	0.034020689	-0.93406571	1.0083797	-0.21690292	-1.0530303	1.0205555	0.29092642	-0.74946958	0.84792647	-0.18462029	-0.9697855	0.79726587	0.32440517
